<svg width="1821" height="158" viewBox="0 0 1821 158" fill="none" xmlns="http://www.w3.org/2000/svg">
    <path fill-rule="evenodd" clip-rule="evenodd"
        d="M0 0.133362L75.3778 6.06477C152.178 11.9962 302.933 23.859 455.111 43.9345C607.289 64.4663 758.044 93.6671 910.222 99.5985C1062.4 105.53 1213.16 87.7357 1365.33 82.2605C1517.51 76.3291 1668.27 82.2605 1745.07 84.9981L1820.44 87.7357V158H1745.07C1668.27 158 1517.51 158 1365.33 158C1213.16 158 1062.4 158 910.222 158C758.044 158 607.289 158 455.111 158C302.933 158 152.178 158 75.3778 158H0V0.133362Z"
        fill="#20DF7F" fill-opacity="0.8" />
    <path fill-rule="evenodd" clip-rule="evenodd"
        d="M0 63.28L60.6815 75.9094C121.363 88.5387 242.726 113.797 364.089 107.483C485.452 101.168 606.815 63.28 728.178 38.0214C849.541 12.7627 970.904 0.133362 1092.27 0.133362C1213.63 0.133362 1334.99 12.7627 1456.36 34.864C1577.72 56.9654 1699.08 88.5387 1759.76 104.325L1820.44 120.112V158H1759.76C1699.08 158 1577.72 158 1456.36 158C1334.99 158 1213.63 158 1092.27 158C970.904 158 849.541 158 728.178 158C606.815 158 485.452 158 364.089 158C242.726 158 121.363 158 60.6815 158H0V63.28Z"
        fill="#224957" fill-opacity="0.8" />
</svg>